# ProBuilder 5.1.1
# https://unity3d.com/unity/features/worldbuilding/probuilder
# 2/1/2024 1:19:42 PM

mtllib ./ripple_po2.mtl
o ripple_po2

g ripple
v 1.144409E-06 -0.3967945 -8.836219
v 8.569659E-07 -0.1607487 -6.517295
v -2.013955 -0.1607487 -6.198316
v -2.730541 -0.3967945 -8.403743
v 2.730544 -0.3967945 -8.403744
v 2.013956 -0.1607487 -6.198317
v 5.193802 -0.3967945 -7.148651
v 3.830772 -0.1607487 -5.272604
v 1.201066 -0.02480647 -3.696497
v 2.284573 -0.02480647 -3.144428
v 0.1714215 0.2004437 -0.5275531
v 0.3260415 0.2004437 -0.4487599
v -3.83077 -0.1607487 -5.272602
v -5.193799 -0.3967945 -7.148649
v -2.28455 -0.02480647 -3.144428
v -1.20106 -0.02480647 -3.696497
v -0.3260356 0.2004437 -0.4487599
v 2.946763E-06 -0.02480647 -3.88673
v -0.1714156 0.2004437 -0.5275531
v 2.946763E-06 0.2004437 -0.5547008
v -0.4487584 0.2004437 -0.3260371
v -3.144426 -0.02480647 -2.284552
v -5.272602 -0.1607487 -3.830769
v -7.148651 -0.3967945 -5.193797
v -0.5275517 0.2004437 -0.1714171
v -3.696496 -0.02480647 -1.201062
v -0.5546993 0.2004437 1.473381E-06
v -3.886729 -0.02480647 1.473381E-06
v -6.198316 -0.1607487 -2.013953
v -8.403743 -0.3967945 -2.73054
v -6.517294 -0.1607487 1.453128E-06
v -8.836218 -0.3967945 1.907349E-06
v -3.696496 -0.02480647 1.201065
v -6.198316 -0.1607487 2.013956
v -3.144426 -0.02480647 2.284571
v -5.272593 -0.3570995 3.830772
v -0.4487584 0.2004437 0.3260401
v -0.5275517 0.2004437 0.1714201
v -8.403743 -0.3967945 2.730544
v -7.148649 -0.3967945 5.1938
v -2.28455 -0.02480647 3.144431
v -3.830767 -0.3570995 5.272597
v -5.193798 -0.3967945 7.148652
v -0.3260356 0.2004437 0.4487628
v -0.1714156 0.2004437 0.5275561
v -1.20106 -0.02480647 3.6965
v 2.946763E-06 0.2004437 0.5547037
v 2.946763E-06 -0.02480647 3.886734
v -2.013957 -0.3570995 6.198318
v 2.946763E-06 -0.3570995 6.51729
v -2.730541 -0.3967945 8.403744
v 8.810693E-07 -0.3967945 8.836219
v 2.730542 -0.3967945 8.403744
v 3.830773 -0.3570995 5.272597
v 5.193799 -0.3967945 7.148652
v 2.013963 -0.3570995 6.198318
v 2.284556 -0.02480647 3.144431
v 1.201066 -0.02480647 3.6965
v 0.1714215 0.2004437 0.5275561
v 0.3260415 0.2004437 0.4487628
v 0.4487643 0.2004437 0.3260401
v 3.144432 -0.02480647 2.284571
v 0.5275575 0.2004437 0.1714201
v 3.696501 -0.02480647 1.201065
v 0.5547052 0.2004437 1.473381E-06
v 3.886735 -0.02480647 1.473381E-06
v 6.198319 -0.3570995 2.013961
v 6.517294 -0.1607487 1.453128E-06
v 0.5275575 0.2004437 -0.1714171
v 3.696501 -0.02480647 -1.201062
v 6.198319 -0.1607487 -2.013954
v 8.836218 -0.3967945 1.907349E-06
v 8.403747 -0.3967945 -2.730541
v 8.403743 -0.3967945 2.730543
v 7.148651 -0.3967945 5.1938
v 5.272599 -0.3570995 3.830772
v 3.144432 -0.02480647 -2.284552
v 0.4487643 0.2004437 -0.3260371
v 5.272605 -0.1607487 -3.83077
v 7.148655 -0.3967945 -5.193799

vt 0.204154 0.00510323
vt 0.204154 0.2995095
vt 0.2534617 0.2995095
vt 0.2534617 0.00510323
vt 0.1548463 0.00510323
vt 0.1548463 0.2995095
vt 0.1055387 0.00510323
vt 0.1055387 0.2995095
vt 0.1548463 0.7139564
vt 0.1055387 0.7139564
vt 0.1548463 0.9948968
vt 0.1055387 0.9948968
vt 0.3027693 0.2995095
vt 0.3027693 0.00510323
vt 0.3027693 0.7139564
vt 0.2534617 0.7139564
vt 0.3027693 0.9948968
vt 0.204154 0.7139564
vt 0.2534617 0.9948968
vt 0.204154 0.9948968
vt 0.3520769 0.9948968
vt 0.3520769 0.7139564
vt 0.3520771 0.2995095
vt 0.3520769 0.00510323
vt 0.4013846 0.9948968
vt 0.4013846 0.7139564
vt 0.4506922 0.9948968
vt 0.4506922 0.7139564
vt 0.4013846 0.2995095
vt 0.4013846 0.00510323
vt 0.4506922 0.2995095
vt 0.4506922 0.00510323
vt 0.4999999 0.7139564
vt 0.4999999 0.2995095
vt 0.5493075 0.7139564
vt 0.5493075 0.2995095
vt 0.5493075 0.9948968
vt 0.4999999 0.9948968
vt 0.4999999 0.00510323
vt 0.5493075 0.00510323
vt 0.5986152 0.7139564
vt 0.5986152 0.2995095
vt 0.5986152 0.00510323
vt 0.5986152 0.9948968
vt 0.6479229 0.9948968
vt 0.6479229 0.7139564
vt 0.6972305 0.9948968
vt 0.6972305 0.7139564
vt 0.6479229 0.2995095
vt 0.6972305 0.2995095
vt 0.6479229 0.00510323
vt 0.6972305 0.00510323
vt 0.746538 0.00510323
vt 0.7958458 0.2995095
vt 0.7958458 0.00510323
vt 0.7465384 0.2995095
vt 0.7958458 0.7139564
vt 0.7465384 0.7139564
vt 0.746538 0.9948968
vt 0.7958458 0.9948968
vt 0.8451533 0.9948968
vt 0.8451533 0.7139564
vt 0.8944611 0.9948968
vt 0.8944611 0.7139564
vt 0.9437687 0.9948968
vt 0.9437687 0.7139564
vt 0.8944611 0.2995095
vt 0.9437687 0.2995095
vt 0.9930763 0.9948968
vt 0.9930763 0.7139564
vt 0.9930763 0.2995095
vt 0.9437687 0.00510323
vt 0.9930763 0.00510323
vt 0.8944611 0.00510323
vt 0.8451533 0.00510323
vt 0.8451533 0.2995095
vt 0.05623108 0.7139564
vt 0.05623108 0.9948968
vt 0.006923437 0.7139564
vt 0.006923437 0.9948968
vt 0.006923437 0.2995095
vt 0.05623108 0.2995095
vt 0.006923437 0.00510323
vt 0.05623108 0.00510323

vn -1.304019E-08 0.9948592 -0.1012678
vn -3.074567E-08 0.9970726 -0.07646098
vn -0.02362777 0.9970726 -0.07271867
vn -0.03129353 0.9948592 -0.09631146
vn 0.03129348 0.9948592 -0.09631146
vn 0.02362774 0.9970726 -0.0727187
vn 0.05952373 0.9948592 -0.08192743
vn 0.04494262 0.9970726 -0.06185826
vn 0.0183957 0.9982265 -0.05661656
vn 0.03499135 0.9982265 -0.04816044
vn 0.02084272 0.9977229 -0.06414612
vn 0.03964625 0.9977229 -0.05456496
vn -0.04494262 0.9970726 -0.06185817
vn -0.05952378 0.9948592 -0.08192741
vn -0.03499093 0.9982265 -0.04816078
vn -0.01839637 0.9982265 -0.05661632
vn -0.03964562 0.9977228 -0.05456597
vn 1.115344E-07 0.9982265 -0.05953008
vn -0.02084407 0.9977228 -0.06414595
vn 2.919863E-07 0.9977228 -0.06744764
vn -0.05456516 0.9977228 -0.03964619
vn -0.04816053 0.9982265 -0.0349913
vn -0.06185817 0.9970726 -0.04494261
vn -0.0819274 0.9948592 -0.05952375
vn -0.06414612 0.9977229 -0.02084284
vn -0.05661648 0.9982265 -0.01839583
vn -0.06744763 0.9977228 -3.390207E-07
vn -0.05953008 0.9982265 -1.236426E-07
vn -0.07271869 0.9970726 -0.02362774
vn -0.09631146 0.9948592 -0.03129348
vn -0.07646097 0.9970726 1.677037E-08
vn -0.1012678 0.9948592 -7.451539E-09
vn -0.05661636 0.9982265 0.01839624
vn -0.06642086 0.9959527 0.06055045
vn -0.06258234 0.9960999 0.0621956
vn -0.04914997 0.9957621 0.07773096
vn -0.05456592 0.9977228 0.03964541
vn -0.06414594 0.9977228 0.02084406
vn -0.06988242 0.9965596 0.04455792
vn -0.01384658 0.9998536 0.01006013
vn -0.0566772 0.9953403 0.07800908
vn -0.0419206 0.9974535 0.05769856
vn -0.01006015 0.9998536 0.01384659
vn -0.03964599 0.9977228 0.05456522
vn -0.02084282 0.9977229 0.06414613
vn -0.02979699 0.9953403 0.09170514
vn -2.947804E-07 0.9977228 0.06744763
vn -1.630711E-08 0.9953403 0.09642468
vn -0.02203902 0.9974535 0.0678288
vn 9.234613E-08 0.9974535 0.07131963
vn -0.005288924 0.9998536 0.01627768
vn -1.268932E-08 0.9998536 0.01711534
vn 0.005288955 0.9998536 0.01627768
vn 0.04192055 0.9974535 0.05769872
vn 0.01006014 0.9998536 0.0138466
vn 0.02203891 0.9974535 0.0678288
vn 0.05667671 0.9953403 0.07800923
vn 0.0297974 0.9953403 0.09170505
vn 0.02084403 0.9977228 0.06414595
vn 0.03964562 0.9977228 0.05456597
vn 0.05456494 0.9977229 0.03964626
vn 0.07800876 0.9953403 0.05667744
vn 0.06414612 0.9977229 0.02084272
vn 0.09170527 0.9953403 0.02979682
vn 0.06744763 0.9977228 2.933834E-07
vn 0.06876471 0.9975406 0.01356932
vn 0.05107203 0.9971328 0.05583789
vn 0.06221472 0.9974788 0.03413663
vn 0.06414595 0.9977228 -0.02084404
vn 0.05661635 0.9982265 -0.01839636
vn 0.07271869 0.9970726 -0.02362767
vn 0.1012678 0.9948592 9.221279E-08
vn 0.09631146 0.9948592 -0.03129339
vn 0.02984391 0.9990504 0.03174218
vn 0.01384661 0.9998536 0.01006017
vn 0.05769876 0.9974535 0.04192065
vn 0.04816091 0.9982265 -0.03499076
vn 0.05456596 0.9977228 -0.03964562
vn 0.06185823 0.9970726 -0.04494255
vn 0.08192737 0.9948592 -0.05952371

usemtl ripple
f 4/4/4 3/3/3 2/2/2 1/1/1
f 6/6/6 5/5/5 1/1/1 2/2/2
f 8/8/8 7/7/7 5/5/5 6/6/6
f 10/10/10 8/8/8 6/6/6 9/9/9
f 12/12/12 10/10/10 9/9/9 11/11/11
f 14/14/14 13/13/13 3/3/3 4/4/4
f 16/16/16 3/3/3 13/13/13 15/15/15
f 18/18/18 2/2/2 3/3/3 16/16/16
f 19/19/19 16/16/16 15/15/15 17/17/17
f 9/9/9 6/6/6 2/2/2 18/18/18
f 18/18/18 20/20/20 11/11/11 9/9/9
f 16/16/16 19/19/19 20/20/20 18/18/18
f 22/22/22 21/21/21 17/17/17 15/15/15
f 23/23/23 22/22/22 15/15/15 13/13/13
f 24/24/24 23/23/23 13/13/13 14/14/14
f 26/26/26 25/25/25 21/21/21 22/22/22
f 28/28/28 27/27/27 25/25/25 26/26/26
f 23/23/23 24/24/24 30/30/30 29/29/29
f 22/22/22 23/23/23 29/29/29 26/26/26
f 31/31/31 28/28/28 26/26/26 29/29/29
f 32/32/32 31/31/31 29/29/29 30/30/30
f 34/34/34 33/33/33 28/28/28 31/31/31
f 36/36/36 35/35/35 33/33/33 34/34/34
f 38/38/38 33/33/33 35/35/35 37/37/37
f 27/27/27 28/28/28 33/33/33 38/38/38
f 39/39/39 34/34/34 31/31/31 32/32/32
f 40/40/40 36/36/36 34/34/34 39/39/39
f 42/42/42 41/41/41 35/35/35 36/36/36
f 43/43/43 42/42/42 36/36/36 40/40/40
f 46/46/46 45/45/45 44/44/44 41/41/41
f 37/37/37 35/35/35 41/41/41 44/44/44
f 48/48/48 47/47/47 45/45/45 46/46/46
f 50/50/50 48/48/48 46/46/46 49/49/49
f 52/52/52 50/50/50 49/49/49 51/51/51
f 42/42/42 43/43/43 51/51/51 49/49/49
f 49/49/49 46/46/46 41/41/41 42/42/42
f 56/56/56 53/53/53 55/55/55 54/54/54
f 50/50/50 52/52/52 53/53/53 56/56/56
f 58/58/58 56/56/56 54/54/54 57/57/57
f 48/48/48 50/50/50 56/56/56 58/58/58
f 47/47/47 48/48/48 58/58/58 59/59/59
f 57/57/57 60/60/60 59/59/59 58/58/58
f 62/62/62 61/61/61 60/60/60 57/57/57
f 64/64/64 63/63/63 61/61/61 62/62/62
f 66/66/66 65/65/65 63/63/63 64/64/64
f 68/68/68 66/66/66 64/64/64 67/67/67
f 70/70/70 69/69/69 65/65/65 66/66/66
f 71/71/71 70/70/70 66/66/66 68/68/68
f 68/68/68 72/72/72 73/73/73 71/71/71
f 72/72/72 68/68/68 67/67/67 74/74/74
f 76/76/76 75/75/75 74/74/74 67/67/67
f 54/54/54 55/55/55 75/75/75 76/76/76
f 76/76/76 62/62/62 57/57/57 54/54/54
f 67/67/67 64/64/64 62/62/62 76/76/76
f 78/78/78 77/77/77 10/10/10 12/12/12
f 69/80/69 70/79/70 77/77/77 78/78/78
f 79/82/79 77/77/77 70/79/70 71/81/71
f 80/84/80 79/82/79 71/81/71 73/83/73
f 8/8/8 10/10/10 77/77/77 79/82/79
f 7/7/7 8/8/8 79/82/79 80/84/80

