# ProBuilder 5.1.1
# https://unity3d.com/unity/features/worldbuilding/probuilder
# 30/1/2024 9:26:40 AM

mtllib ./glass.mtl
o glass

g glass
v -498.91 0 494.1125
v -505.4848 0 494.1125
v -498.91 5.814438 494.1125
v -505.4848 5.814438 494.1125
v -505.4848 0 493.87
v -505.4848 5.814438 493.87
v -498.91 0 493.87
v -498.91 5.814438 493.87
v -498.91 5.78 542.2425
v -508.9786 5.78 542.2426
v -502.6855 10.82718 542.2426
v -508.9392 12.73501 542.2426
v -508.9786 5.78 542
v -508.9392 12.73501 542
v -498.91 5.78 542
v -502.6855 10.82718 542
v -519 0 542.2425
v -509.422 0 542.2425
v -519 5.814438 542.2425
v -509.422 5.814438 542.2425
v -509.422 0 542
v -509.422 5.814438 542
v -519 0 542
v -519 5.814438 542
v -519 5.78 542.2425
v -509.4475 5.78 542.2426
v -515.2245 10.82718 542.2426
v -508.9708 12.73501 542.2426
v -509.4475 5.78 542
v -508.9708 12.73501 542
v -519 5.78 542
v -515.2245 10.82718 542
v -498.91 0 542.2425
v -508.9399 0 542.2425
v -498.91 5.814438 542.2425
v -508.9399 5.814438 542.2425
v -508.9399 0 542
v -508.9399 5.814438 542
v -498.91 0 542
v -498.91 5.814438 542
v -498.7045 0.05679989 542.1135
v -499.0267 0.05679989 542.1134
v -498.7045 5.726726 542.1135
v -499.0267 5.726726 542.1135
v -499.0267 0.05679989 530.6181
v -499.0267 5.726726 530.6183
v -498.7045 0.05679989 530.6183
v -498.7045 5.726726 530.6183
v -508.9144 12.79351 542.1849
v -508.8941 12.50085 542.0395
v -508.9193 12.80367 530.6931
v -508.899 12.511 530.5476
v -498.7045 5.963533 542.1135
v -499.1147 5.963533 542.1138
v -498.7045 5.963533 530.6183
v -499.1147 5.963533 530.6187
v -502.4311 10.83053 542.1138
v -502.7533 10.59041 542.1138
v -502.4311 10.83053 530.6187
v -502.7533 10.59041 530.6187
v -499.1147 5.963533 542.157
v -499.0267 5.726726 542.157
v -498.7045 0.05679989 530.0515
v -499.0267 0.05679989 530.0515
v -498.7045 5.726726 530.0515
v -499.0267 5.726726 530.0515
v -499.0267 0.05679989 518.2446
v -499.0267 5.726726 518.2449
v -498.7045 0.05679989 518.2449
v -498.7045 5.726726 518.2449
v -508.9144 12.79351 530.1249
v -508.8941 12.50085 529.9755
v -508.9193 12.80367 518.3216
v -508.899 12.511 518.1722
v -498.7045 5.963533 530.0515
v -499.1147 5.963533 530.0519
v -498.7045 5.963533 518.2449
v -499.1147 5.963533 518.2452
v -502.4311 10.83053 530.0519
v -502.7533 10.59041 530.0519
v -502.4311 10.83053 518.2452
v -502.7533 10.59041 518.2452
v -499.1147 5.963533 530.0963
v -499.0267 5.726726 530.0963
v -519.2056 0.05679989 542.1135
v -518.8833 0.05679989 542.1134
v -519.2056 5.726726 542.1135
v -518.8834 5.726726 542.1135
v -518.8833 0.05679989 530.6181
v -518.8834 5.726726 530.6183
v -519.2056 0.05679989 530.6183
v -519.2056 5.726726 530.6183
v -508.9957 12.79351 542.1849
v -509.0159 12.50085 542.0395
v -508.9907 12.80367 530.6931
v -509.011 12.511 530.5476
v -519.2056 5.963533 542.1135
v -518.7954 5.963533 542.1138
v -519.2056 5.963533 530.6183
v -518.7954 5.963533 530.6187
v -515.4789 10.83053 542.1138
v -515.1567 10.59041 542.1138
v -515.4789 10.83053 530.6187
v -515.1567 10.59041 530.6187
v -518.7954 5.963533 542.157
v -518.8833 5.726726 542.157
v -519.2056 0.05679989 530.052
v -518.8833 0.05679989 530.0519
v -519.2056 5.726726 530.052
v -518.8834 5.726726 530.052
v -518.8833 0.05679989 518.3348
v -518.8834 5.726726 518.335
v -519.2056 0.05679989 518.335
v -519.2056 5.726726 518.335
v -508.9957 12.79351 530.1248
v -509.0159 12.50085 529.9766
v -508.9907 12.80367 518.4111
v -509.011 12.511 518.2629
v -519.2056 5.963533 530.052
v -518.7954 5.963533 530.0524
v -519.2056 5.963533 518.335
v -518.7954 5.963533 518.3353
v -515.4789 10.83053 530.0524
v -515.1567 10.59041 530.0524
v -515.4789 10.83053 518.3353
v -515.1567 10.59041 518.3353
v -518.7954 5.963533 530.0964
v -518.8833 5.726726 530.0964
v -498.7045 0.05679989 517.7935
v -499.0267 0.05679989 517.7934
v -498.7045 5.726726 517.7935
v -499.0267 5.726726 517.7935
v -499.0267 0.05679989 506.2981
v -499.0267 5.726726 506.2983
v -498.7045 0.05679989 506.2983
v -498.7045 5.726726 506.2983
v -508.9144 12.79351 517.8649
v -508.8941 12.50085 517.7195
v -508.9193 12.80367 506.373
v -508.899 12.511 506.2276
v -498.7045 5.963533 517.7935
v -499.1147 5.963533 517.7938
v -498.7045 5.963533 506.2983
v -499.1147 5.963533 506.2986
v -502.4311 10.83053 517.7938
v -502.7533 10.59041 517.7938
v -502.4311 10.83053 506.2986
v -502.7533 10.59041 506.2986
v -499.1147 5.963533 517.837
v -499.0267 5.726726 517.837
v -519.2056 0.05679989 517.7935
v -518.8833 0.05679989 517.7934
v -519.2056 5.726726 517.7935
v -518.8834 5.726726 517.7935
v -518.8833 0.05679989 506.2981
v -518.8834 5.726726 506.2983
v -519.2056 0.05679989 506.2983
v -519.2056 5.726726 506.2983
v -508.9957 12.79351 517.8649
v -509.0159 12.50085 517.7195
v -508.9907 12.80367 506.373
v -509.011 12.511 506.2276
v -519.2056 5.963533 517.7935
v -518.7954 5.963533 517.7938
v -519.2056 5.963533 506.2983
v -518.7954 5.963533 506.2986
v -515.4789 10.83053 517.7938
v -515.1567 10.59041 517.7938
v -515.4789 10.83053 506.2986
v -515.1567 10.59041 506.2986
v -518.7954 5.963533 517.837
v -518.8833 5.726726 517.837
v -519.2056 0.05679989 505.7935
v -518.8833 0.05679989 505.7934
v -519.2056 5.726726 505.7935
v -518.8834 5.726726 505.7935
v -518.8833 0.05679989 494.2981
v -518.8834 5.726726 494.2983
v -519.2056 0.05679989 494.2983
v -519.2056 5.726726 494.2983
v -508.9957 12.79351 505.8649
v -509.0159 12.50085 505.7195
v -508.9907 12.80367 494.373
v -509.011 12.511 494.2276
v -519.2056 5.963533 505.7935
v -518.7954 5.963533 505.7939
v -519.2056 5.963533 494.2983
v -518.7954 5.963533 494.2986
v -515.4789 10.83053 505.7939
v -515.1567 10.59041 505.7939
v -515.4789 10.83053 494.2986
v -515.1567 10.59041 494.2986
v -518.7954 5.963533 505.837
v -518.8833 5.726726 505.837
v -498.7045 0.05679989 505.7935
v -499.0267 0.05679989 505.7934
v -498.7045 5.726726 505.7935
v -499.0267 5.726726 505.7935
v -499.0267 0.05679989 494.2981
v -499.0267 5.726726 494.2983
v -498.7045 0.05679989 494.2983
v -498.7045 5.726726 494.2983
v -508.9144 12.79351 505.8649
v -508.8941 12.50085 505.7195
v -508.9193 12.80367 494.373
v -508.899 12.511 494.2276
v -498.7045 5.963533 505.7935
v -499.1147 5.963533 505.7939
v -498.7045 5.963533 494.2983
v -499.1147 5.963533 494.2986
v -502.4311 10.83053 505.7939
v -502.7533 10.59041 505.7939
v -502.4311 10.83053 494.2986
v -502.7533 10.59041 494.2986
v -499.1147 5.963533 505.837
v -499.0267 5.726726 505.837
v -498.91 5.78 494.1125
v -508.9185 5.78 494.1125
v -502.6855 10.82718 494.1125
v -508.9392 12.73501 494.1125
v -508.9185 5.78 493.87
v -508.9392 12.73501 493.87
v -498.91 5.78 493.87
v -502.6855 10.82718 493.87
v -519 5.78 494.1125
v -509.4475 5.78 494.1125
v -515.2245 10.82718 494.1125
v -508.9708 12.73501 494.1125
v -509.4475 5.78 493.87
v -508.9708 12.73501 493.87
v -519 5.78 493.87
v -515.2245 10.82718 493.87
v -519 0 494.1125
v -512.4252 0 494.1125
v -519 5.814438 494.1125
v -512.4252 5.814438 494.1125
v -512.4252 0 493.87
v -512.4252 5.814438 493.87
v -519 0 493.87
v -519 5.814438 493.87

vt -1.525879E-05 0
vt -6.574814 0
vt -1.525879E-05 0.2720803
vt -6.574814 0.2720803
vt 0.4071808 0
vt 0.4071808 0.2720803
vt 6.574814 0
vt 6.574814 0.2720803
vt -0.4071808 0
vt -0.4071808 0.2720803
vt 1.525879E-05 0.4071808
vt 6.574814 0.4071808
vt -6.574814 0.4071808
vt -10.06864 1.546741E-05
vt -3.775444 0.2361929
vt -10.02921 0.3254678
vt 0.4072418 -1.210966
vt -1.525879E-05 -1.210966
vt 0.4072418 -0.8831335
vt -1.525879E-05 -0.8831335
vt 10.06863 -1.788139E-06
vt 10.02921 0.3254523
vt 3.775442 0.236178
vt 3.782832 -1.525879E-05
vt 3.782832 0.4072113
vt 3.778439 0.4072113
vt 10.03283 0.4072113
vt 3.778439 0
vt 10.03283 0
vt -10.06863 0.4072418
vt -9.578001 0
vt -9.578001 0.2720803
vt 9.578003 0
vt 9.578003 0.2720803
vt 9.578003 0.4071808
vt -9.578003 0.4071808
vt -9.55249 3.20375E-05
vt -7.889297 0.4072113
vt -7.889297 0
vt -8.466511 0.4072113
vt -8.466511 0
vt 9.55249 -1.66893E-06
vt -9.55249 0.4072113
vt -10.02991 0
vt -10.02991 0.2720803
vt 10.02991 0
vt 10.02991 0.2720803
vt 10.02991 0.4071808
vt -10.02991 0.4071808
vt -1.634285 0
vt -2.793152 0
vt -1.634285 2.019208
vt -2.793152 2.019208
vt -0.6962125 -6.997585E-05
vt -1.192093E-05 2.019137
vt -0.696198 2.019137
vt 2.793161 -5.722046E-06
vt 1.634295 -5.722046E-06
vt 2.793159 2.019201
vt 1.634295 2.019197
vt 0.696197 0
vt 0.696197 2.019208
vt -1.413818 25.81214
vt -0.8265228 25.71662
vt -1.554199 25.60342
vt -0.9669037 25.5079
vt -1.634287 -0.6976409
vt -2.794019 -0.6962118
vt -1.633418 -1.335144E-05
vt -2.79315 0.001426697
vt -1.634285 2.103541
vt -3.109406 2.103541
vt 0.696197 2.103541
vt 1.215935E-05 2.103541
vt 3.109406 2.10339
vt 1.634285 2.103216
vt -15.03581 3.836802
vt -16.19473 3.751411
vt 1.890595 -0.696197
vt 1.890595 -1.0252E-05
vt 15.40376 -0.6961784
vt 15.40376 1.215935E-05
vt -3.347853 1.215935E-05
vt -3.347853 -0.6961787
vt -16.53652 1.215935E-05
vt -16.53652 -0.6961787
vt 3.109386 2.103611
vt 1.634278 2.103611
vt 16.19473 3.751457
vt 15.0358 3.836873
vt -15.04136 3.945648
vt -16.19088 3.730316
vt -38.35157 4.51474
vt -38.21562 3.095764
vt 15.14452 -0.6961784
vt 15.14452 1.215935E-05
vt 38.48789 -0.6916723
vt 38.47008 0.004314661
vt -16.30257 1.239777E-05
vt -16.30257 -0.696178
vt -38.39635 -0.004490137
vt -38.41416 -0.7004807
vt 16.19159 3.731995
vt 15.04235 3.972412
vt 38.30878 4.522125
vt 38.32387 3.260162
vt -3.488575 -0.8209465
vt -2.952662 -0.5729117
vt -3.812717 -0.1206579
vt -3.276813 0.1273954
vt -1.414337 25.81067
vt -1.553879 25.60331
vt -0.9664001 25.50937
vt -15.04132 3.94519
vt -38.21313 3.039948
vt 38.30944 4.522079
vt 38.32159 3.19249
vt -2.792938 2.019208
vt 2.792946 2.019202
vt 15.04232 3.971924
vt 38.30878 4.521606
vt 38.32386 3.259644
vt -3.277161 0.1272326
vt -1.414551 25.81112
vt -0.8271484 25.71675
vt -0.9669037 25.50903
vt -38.21382 3.055603
vt 38.32226 3.212524
vt -1.414185 25.81219
vt -1.55455 25.60347
vt -0.9672852 25.50797
vt -2.79315 0.001533747
vt -38.21563 3.096001
vt -10.00848 3.299117E-05
vt 0.4072115 0.635949
vt 6.467104E-06 0.635949
vt 0.4072115 0.9620603
vt 6.467104E-06 0.9620603
vt 10.00848 -1.788139E-06
vt -10.00848 0.4072115

vn 0 0 1
vn -1 0 0
vn 0 0 -1
vn 1 0 0
vn 0 1 0
vn 0 -1 0
vn -0.999984 0.005669015 0
vn 0.8007582 0.5989878 0
vn 0.2917938 0.9564813 0
vn -0.9976592 0.06838221 0
vn 0.8007559 -0.5989909 0
vn 0.2917938 -0.9564813 0
vn 0.0007576473 4.305886E-05 -0.9999998
vn 0.0003788237 2.152943E-05 -0.9999999
vn -0.9975989 -0.06925466 0.0003679531
vn 0.0004463948 -0.0006074321 0.9999994
vn 0.0008927897 -0.001214864 0.9999989
vn 0 0.001288711 -0.9999992
vn -0.000371996 0.0006443553 -0.9999994
vn -0.000743992 0 -0.9999997
vn 0.0008927902 0.0006083535 0.9999994
vn 0.0004463951 0.0003041768 0.9999997
vn 0.7939821 0.6079412 0
vn -0.7860484 -0.6181651 0
vn -0.0007439919 -0.000585091 -0.9999996
vn 0.00779123 -0.01045651 0.999915
vn -0.07115288 -0.2293125 0.9405866
vn -0.150097 -0.4481685 0.8812581
vn 0.2909534 0.9567373 0
vn 0.2903721 0.9569135 0.0003606892
vn 0.2897907 0.9570898 0.0007213785
vn -0.2970631 -0.9548579 0
vn -0.2976693 -0.9546688 -0.0003575897
vn -0.2982755 -0.9544796 -0.0007151795
vn 0.00814349 -0.01092927 -0.9999071
vn 0.06719119 0.2187724 -0.9423716
vn 0.1262389 0.4484741 -0.884836
vn -0.937432 -0.3481685 0
vn 0.008005383 -0.01074392 0.9999103
vn -0.07262071 -0.2341617 0.9378868
vn -0.1532468 -0.4575795 0.8758633
vn 0.008360328 -0.01122029 -0.9999021
vn 0.06861416 0.2233008 -0.9397783
vn 0.128868 0.4578219 -0.8796546
vn 0.0007575756 -4.305071E-05 0.9999998
vn -0.9975989 0.06925466 -0.0003679531
vn 0.0008928561 0.00121484 -0.9999989
vn 0 -0.001288711 0.9999992
vn -0.0007440474 0 0.9999997
vn 0.0008928567 -0.00060841 -0.9999994
vn 0.7939797 -0.6079443 0
vn -0.7860433 0.6181715 0
vn -0.0007440473 0.0005851443 0.9999996
vn 0.007791256 0.01045654 -0.999915
vn -0.07115325 0.2293125 -0.9405865
vn -0.1500977 0.4481685 -0.881258
vn 0.2909546 -0.9567368 0
vn 0.2903733 -0.9569131 -0.0003606888
vn 0.289792 -0.9570894 -0.0007213776
vn -0.2970644 0.9548575 0
vn -0.2976706 0.9546683 0.0003575893
vn -0.2982768 0.9544792 0.0007151786
vn 0.008143519 0.01092931 0.9999071
vn 0.0671915 -0.2187724 0.9423715
vn 0.1262395 -0.4484741 0.8848359
vn -0.937432 0.3481685 0
vn -0.9375108 0.3479562 4.959063E-06
vn 0.00794518 0.01066312 -0.9999116
vn -0.07221856 0.2328269 -0.9386365
vn -0.1523823 0.4549907 -0.8773614
vn 0.008297405 0.01113584 0.9999036
vn 0.06819599 -0.221964 0.9405504
vn 0.1280946 -0.4550639 0.8811972
vn -0.9999956 -0.002979339 0

usemtl glass1
f 3/3/1 4/4/1 2/2/1 1/1/1
f 4/6/2 6/3/2 5/1/2 2/5/2
f 6/8/3 8/3/3 7/1/3 5/7/3
f 8/3/4 3/10/4 1/9/4 7/1/4
f 8/1/5 6/7/5 4/12/5 3/11/5
f 1/11/6 2/13/6 5/2/6 7/1/6
f 11/15/1 12/16/1 10/14/1 9/1/1
f 12/19/7 14/20/7 13/18/7 10/17/7
f 14/22/3 16/23/3 15/1/3 13/21/3
f 16/24/8 11/25/8 9/11/8 15/1/8
f 16/28/9 14/29/9 12/27/9 11/26/9
f 9/11/6 10/30/6 13/14/6 15/1/6
f 19/3/3 20/32/3 18/31/3 17/1/3
f 20/6/2 22/3/2 21/1/2 18/5/2
f 22/34/1 24/3/1 23/1/1 21/33/1
f 24/3/4 19/10/4 17/9/4 23/1/4
f 24/1/6 22/33/6 20/35/6 19/11/6
f 17/11/5 18/36/5 21/31/5 23/1/5
f 27/15/3 28/16/3 26/37/3 25/1/3
f 28/40/10 30/41/10 29/39/10 26/38/10
f 30/22/1 32/23/1 31/1/1 29/42/1
f 32/24/11 27/25/11 25/11/11 31/1/11
f 32/28/12 30/29/12 28/27/12 27/26/12
f 25/11/5 26/43/5 29/37/5 31/1/5
f 35/3/1 36/45/1 34/44/1 33/1/1
f 36/6/2 38/3/2 37/1/2 34/5/2
f 38/47/3 40/3/3 39/1/3 37/46/3
f 40/3/4 35/10/4 33/9/4 39/1/4
f 40/1/5 38/46/5 36/48/5 35/11/5
f 33/11/6 34/49/6 37/44/6 39/1/6
f 43/52/1 44/53/1 42/51/1 41/50/1
f 44/55/2 46/56/2 45/54/2 42/1/2
f 46/59/14 48/60/3 47/58/14 45/57/13
f 48/62/4 43/55/4 41/1/4 47/61/4
f 51/65/15 52/66/15 50/64/15 49/63/15
f 41/69/6 42/70/6 45/68/6 47/67/6
f 53/71/16 54/72/17 44/53/16 43/52/1
f 55/73/4 53/74/4 43/55/4 48/62/4
f 56/75/19 55/76/20 48/60/19 46/59/18
f 57/77/22 58/78/1 54/72/22 53/71/21
f 59/81/23 57/82/23 53/80/23 55/79/23
f 58/85/24 60/86/24 56/84/24 54/83/24
f 60/89/14 59/90/3 55/88/14 56/87/25
f 49/93/27 50/94/28 58/92/27 57/91/26
f 51/97/30 49/98/31 57/96/30 59/95/29
f 50/101/33 52/102/34 60/100/33 58/99/32
f 52/105/36 51/106/37 59/104/36 60/103/35
f 62/110/38 61/109/38 56/107/38 46/108/38
f 65/52/1 66/53/1 64/51/1 63/50/1
f 66/55/2 68/56/2 67/54/2 64/1/2
f 68/59/14 70/60/3 69/58/14 67/57/13
f 70/62/4 65/55/4 63/1/4 69/61/4
f 73/112/15 74/113/15 72/64/15 71/111/15
f 63/69/6 64/70/6 67/68/6 69/67/6
f 75/71/16 76/72/17 66/53/16 65/52/1
f 77/73/4 75/74/4 65/55/4 70/62/4
f 78/75/19 77/76/20 70/60/19 68/59/18
f 79/77/22 80/78/1 76/72/22 75/71/21
f 81/81/23 79/82/23 75/80/23 77/79/23
f 80/85/24 82/86/24 78/84/24 76/83/24
f 82/89/14 81/90/3 77/88/14 78/87/25
f 71/93/40 72/115/41 80/92/40 79/114/39
f 73/97/30 71/98/31 79/96/30 81/95/29
f 72/101/33 74/102/34 82/100/33 80/99/32
f 74/116/43 73/117/44 81/104/43 82/103/42
f 84/110/38 83/109/38 78/107/38 68/108/38
f 87/52/3 88/118/3 86/51/3 85/50/3
f 88/55/2 90/56/2 89/54/2 86/1/2
f 90/119/22 92/60/1 91/58/22 89/57/45
f 92/62/4 87/55/4 85/1/4 91/61/4
f 95/65/46 96/66/46 94/64/46 93/63/46
f 85/69/5 86/70/5 89/68/5 91/67/5
f 97/71/19 98/72/47 88/53/19 87/52/3
f 99/73/4 97/74/4 87/55/4 92/62/4
f 100/75/16 99/76/49 92/60/16 90/59/48
f 101/77/14 102/78/3 98/72/14 97/71/50
f 103/81/51 101/82/51 97/80/51 99/79/51
f 102/85/52 104/86/52 100/84/52 98/83/52
f 104/89/22 103/90/1 99/88/22 100/87/53
f 93/93/55 94/94/56 102/92/55 101/91/54
f 95/97/58 93/98/59 101/96/58 103/95/57
f 94/101/61 96/102/62 104/100/61 102/99/60
f 96/121/64 95/122/65 103/120/64 104/103/63
f 106/123/67 105/109/66 100/107/66 90/108/66
f 109/52/3 110/118/3 108/51/3 107/50/3
f 110/55/2 112/56/2 111/54/2 108/1/2
f 112/119/22 114/60/1 113/58/22 111/57/45
f 114/62/4 109/55/4 107/1/4 113/61/4
f 117/65/46 118/126/46 116/125/46 115/124/46
f 107/69/5 108/70/5 111/68/5 113/67/5
f 119/71/19 120/72/47 110/53/19 109/52/3
f 121/73/4 119/74/4 109/55/4 114/62/4
f 122/75/16 121/76/49 114/60/16 112/59/48
f 123/77/14 124/78/3 120/72/14 119/71/50
f 125/81/51 123/82/51 119/80/51 121/79/51
f 124/85/52 126/86/52 122/84/52 120/83/52
f 126/89/22 125/90/1 121/88/22 122/87/53
f 115/93/69 116/127/70 124/92/69 123/114/68
f 117/97/58 115/98/59 123/96/58 125/95/57
f 116/101/61 118/102/62 126/100/61 124/99/60
f 118/116/72 117/128/73 125/104/72 126/103/71
f 128/123/67 127/109/66 122/107/66 112/108/66
f 131/52/1 132/53/1 130/51/1 129/50/1
f 132/55/2 134/56/2 133/54/2 130/1/2
f 134/59/14 136/60/3 135/58/14 133/57/13
f 136/62/4 131/55/4 129/1/4 135/61/4
f 139/65/15 140/66/15 138/64/15 137/63/15
f 129/69/6 130/70/6 133/68/6 135/67/6
f 141/71/16 142/72/17 132/53/16 131/52/1
f 143/73/4 141/74/4 131/55/4 136/62/4
f 144/75/19 143/76/20 136/60/19 134/59/18
f 145/77/22 146/78/1 142/72/22 141/71/21
f 147/81/23 145/82/23 141/80/23 143/79/23
f 146/85/24 148/86/24 144/84/24 142/83/24
f 148/89/14 147/90/3 143/88/14 144/87/25
f 137/93/27 138/94/28 146/92/27 145/91/26
f 139/97/30 137/98/31 145/96/30 147/95/29
f 138/101/33 140/102/34 148/100/33 146/99/32
f 140/121/36 139/106/37 147/104/36 148/103/35
f 150/110/38 149/109/38 144/107/38 134/108/38
f 153/52/3 154/118/3 152/51/3 151/50/3
f 154/55/2 156/56/2 155/54/2 152/1/2
f 156/119/22 158/60/1 157/58/22 155/57/45
f 158/62/4 153/55/4 151/1/4 157/61/4
f 161/65/46 162/66/46 160/64/46 159/63/46
f 151/69/5 152/70/5 155/68/5 157/67/5
f 163/71/19 164/72/47 154/53/19 153/52/3
f 165/73/4 163/74/4 153/55/4 158/62/4
f 166/75/16 165/76/49 158/60/16 156/59/48
f 167/77/14 168/78/3 164/72/14 163/71/50
f 169/81/51 167/82/51 163/80/51 165/79/51
f 168/85/52 170/86/52 166/84/52 164/83/52
f 170/89/22 169/90/1 165/88/22 166/87/53
f 159/93/55 160/94/56 168/92/55 167/91/54
f 161/97/58 159/98/59 167/96/58 169/95/57
f 160/101/61 162/102/62 170/100/61 168/99/60
f 162/121/64 161/106/65 169/104/64 170/103/63
f 172/123/67 171/109/66 166/107/66 156/108/66
f 175/52/3 176/118/3 174/51/3 173/50/3
f 176/55/2 178/56/2 177/54/2 174/1/2
f 178/119/22 180/60/1 179/58/22 177/57/45
f 180/62/4 175/55/4 173/1/4 179/61/4
f 183/130/46 184/131/46 182/64/46 181/129/46
f 173/69/5 174/70/5 177/68/5 179/67/5
f 185/71/19 186/72/47 176/53/19 175/52/3
f 187/73/4 185/74/4 175/55/4 180/62/4
f 188/75/16 187/76/49 180/60/16 178/59/48
f 189/77/14 190/78/3 186/72/14 185/71/50
f 191/81/51 189/82/51 185/80/51 187/79/51
f 190/85/52 192/86/52 188/84/52 186/83/52
f 192/89/22 191/90/1 187/88/22 188/87/53
f 181/93/55 182/94/56 190/92/55 189/91/54
f 183/97/58 181/98/59 189/96/58 191/95/57
f 182/101/61 184/102/62 192/100/61 190/99/60
f 184/121/64 183/106/65 191/104/64 192/103/63
f 194/123/67 193/109/66 188/107/66 178/108/66
f 197/52/1 198/53/1 196/51/1 195/50/1
f 198/55/2 200/56/2 199/54/2 196/1/2
f 200/59/14 202/60/3 201/58/14 199/57/13
f 202/62/4 197/55/4 195/1/4 201/61/4
f 205/65/15 206/66/15 204/64/15 203/63/15
f 195/69/6 196/132/6 199/68/6 201/67/6
f 207/71/16 208/72/17 198/53/16 197/52/1
f 209/73/4 207/74/4 197/55/4 202/62/4
f 210/75/19 209/76/20 202/60/19 200/59/18
f 211/77/22 212/78/1 208/72/22 207/71/21
f 213/81/23 211/82/23 207/80/23 209/79/23
f 212/85/24 214/86/24 210/84/24 208/83/24
f 214/89/14 213/90/3 209/88/14 210/87/25
f 203/93/27 204/133/28 212/92/27 211/91/26
f 205/97/30 203/98/31 211/96/30 213/95/29
f 204/101/33 206/102/34 214/100/33 212/99/32
f 206/121/36 205/106/37 213/104/36 214/103/35
f 216/110/38 215/109/38 210/107/38 200/108/38
f 219/15/1 220/16/1 218/134/1 217/1/1
f 220/137/74 222/138/74 221/136/74 218/135/74
f 222/22/3 224/23/3 223/1/3 221/139/3
f 224/24/8 219/25/8 217/11/8 223/1/8
f 224/28/9 222/29/9 220/27/9 219/26/9
f 217/11/6 218/140/6 221/134/6 223/1/6
f 227/15/3 228/16/3 226/37/3 225/1/3
f 228/40/10 230/41/10 229/39/10 226/38/10
f 230/22/1 232/23/1 231/1/1 229/42/1
f 232/24/11 227/25/11 225/11/11 231/1/11
f 232/28/12 230/29/12 228/27/12 227/26/12
f 225/11/5 226/43/5 229/37/5 231/1/5
f 235/3/3 236/4/3 234/2/3 233/1/3
f 236/6/2 238/3/2 237/1/2 234/5/2
f 238/8/1 240/3/1 239/1/1 237/7/1
f 240/3/4 235/10/4 233/9/4 239/1/4
f 240/1/6 238/7/6 236/12/6 235/11/6
f 233/11/5 234/13/5 237/2/5 239/1/5

