# ProBuilder 5.1.1
# https://unity3d.com/unity/features/worldbuilding/probuilder
# 30/1/2024 9:26:40 AM

mtllib ./green_lines.mtl
o green lines

g green lines
v -505.535 -0.2799997 497.5119
v -512.8013 -0.2799997 497.5119
v -505.535 0.05686283 497.5119
v -512.8013 0.05686283 497.5119
v -512.8013 -0.2799997 494.0962
v -512.8013 0.05686283 494.0962
v -505.535 -0.2799997 494.0962
v -505.535 0.05686283 494.0962
v -498.6585 0 494.2455
v -498.9836 0 494.2455
v -498.6585 5.79232 494.2455
v -498.9836 5.79232 494.2455
v -498.9836 0 493.722
v -498.9836 5.79232 493.722
v -498.6585 0 493.722
v -498.6585 5.79232 493.722
v -508.9594 13.01165 494.2487
v -508.9849 12.71267 494.2421
v -508.9644 13.02203 493.7254
v -508.9899 12.72305 493.7188
v -498.6585 6.034239 494.2455
v -499.0723 6.034239 494.2455
v -498.6585 6.034239 493.722
v -508.9603 5.79232 494.2455
v -508.9603 5.79232 493.722
v -508.9603 6.034239 494.2455
v -508.9603 6.034239 493.722
v -499.0723 6.034239 493.722
v -502.4183 11.0063 494.2455
v -502.7435 10.76099 494.2455
v -502.4183 11.0063 493.722
v -502.7435 10.76099 493.722
v -498.6585 0 542.37
v -498.9836 0 542.37
v -498.6585 5.79232 542.37
v -498.9836 5.79232 542.37
v -498.9836 0 541.8465
v -498.9836 5.79232 541.8465
v -498.6585 0 541.8465
v -498.6585 5.79232 541.8465
v -508.9594 13.01165 542.3732
v -508.939 12.71267 542.3666
v -508.9644 13.02203 541.8499
v -508.944 12.72305 541.8433
v -498.6585 6.034239 542.37
v -499.0723 6.034239 542.37
v -498.6585 6.034239 541.8465
v -509.0612 5.79232 542.37
v -509.0612 5.79232 541.8465
v -509.0612 6.034239 542.37
v -509.0612 6.034239 541.8465
v -499.0723 6.034239 541.8466
v -502.4183 11.0063 542.37
v -502.7435 10.76099 542.37
v -502.4183 11.0063 541.8466
v -502.7435 10.76099 541.8466
v -498.6585 0 506.37
v -498.9836 0 506.37
v -498.6585 5.79232 506.37
v -498.9836 5.79232 506.37
v -498.9836 0 505.8465
v -498.9836 5.79232 505.8465
v -498.6585 0 505.8465
v -498.6585 5.79232 505.8465
v -508.9594 13.01165 506.3732
v -508.939 12.71267 506.3666
v -508.9644 13.02203 505.8499
v -508.944 12.72305 505.8433
v -498.6585 6.034239 506.37
v -499.0723 6.034239 506.37
v -498.6585 6.034239 505.8465
v -499.0723 6.034239 505.8465
v -502.4183 11.0063 506.37
v -502.7435 10.76099 506.37
v -502.4183 11.0063 505.8465
v -502.7435 10.76099 505.8465
v -499.0723 6.034239 506.372
v -498.9836 5.79232 506.372
v -498.6585 0 518.37
v -498.9836 0 518.37
v -498.6585 5.79232 518.37
v -498.9836 5.79232 518.37
v -498.9836 0 517.8465
v -498.9836 5.79232 517.8465
v -498.6585 0 517.8465
v -498.6585 5.79232 517.8465
v -508.9594 13.01165 518.3732
v -508.939 12.71267 518.3666
v -508.9644 13.02203 517.8499
v -508.944 12.72305 517.8433
v -498.6585 6.034239 518.37
v -499.0723 6.034239 518.37
v -498.6585 6.034239 517.8465
v -499.0723 6.034239 517.8466
v -502.4183 11.0063 518.37
v -502.7435 10.76099 518.37
v -502.4183 11.0063 517.8466
v -502.7435 10.76099 517.8466
v -499.0723 6.034239 518.3719
v -498.9836 5.79232 518.3719
v -498.6585 0 530.63
v -498.9836 0 530.63
v -498.6585 5.79232 530.63
v -498.9836 5.79232 530.63
v -498.9836 0 530.1065
v -498.9836 5.79232 530.1065
v -498.6585 0 530.1065
v -498.6585 5.79232 530.1065
v -508.9594 13.01165 530.6332
v -508.939 12.71267 530.6266
v -508.9644 13.02203 530.1099
v -508.944 12.72305 530.1033
v -498.6585 6.034239 530.63
v -499.0723 6.034239 530.63
v -498.6585 6.034239 530.1065
v -499.0723 6.034239 530.1066
v -502.4183 11.0063 530.63
v -502.7435 10.76099 530.63
v -502.4183 11.0063 530.1066
v -502.7435 10.76099 530.1066
v -499.0723 6.034239 530.632
v -498.9836 5.79232 530.632
v -519.2515 0 494.2455
v -518.9264 0 494.2455
v -519.2515 5.79232 494.2455
v -518.9264 5.79232 494.2455
v -518.9264 0 493.722
v -518.9264 5.79232 493.722
v -519.2515 0 493.722
v -519.2515 5.79232 493.722
v -508.9506 13.01165 494.2487
v -508.971 12.71267 494.2421
v -508.9456 13.02203 493.7254
v -508.966 12.72305 493.7188
v -519.2515 6.034239 494.2455
v -518.8376 6.034239 494.2455
v -519.2515 6.034239 493.722
v -509.4378 5.79232 494.2455
v -509.4378 5.79232 493.722
v -509.4378 6.034239 494.2455
v -509.4378 6.034239 493.722
v -518.8376 6.034239 493.722
v -515.4916 11.0063 494.2455
v -515.1665 10.76099 494.2455
v -515.4916 11.0063 493.722
v -515.1665 10.76099 493.722
v -519.2515 0 542.37
v -518.9264 0 542.37
v -519.2515 5.79232 542.37
v -518.9264 5.79232 542.37
v -518.9264 0 541.8465
v -518.9264 5.79232 541.8465
v -519.2515 0 541.8465
v -519.2515 5.79232 541.8465
v -508.9506 13.01165 542.3732
v -508.971 12.71267 542.3666
v -508.9456 13.02203 541.8499
v -508.966 12.72305 541.8433
v -519.2515 6.034239 542.37
v -518.8376 6.034239 542.37
v -519.2515 6.034239 541.8465
v -509.4378 5.79232 542.37
v -509.4378 5.79232 541.8465
v -509.4378 6.034239 542.37
v -509.4378 6.034239 541.8465
v -518.8376 6.034239 541.8466
v -515.4916 11.0063 542.37
v -515.1665 10.76099 542.37
v -515.4916 11.0063 541.8466
v -515.1665 10.76099 541.8466
v -519.2515 0 506.37
v -518.9264 0 506.37
v -519.2515 5.79232 506.37
v -518.9264 5.79232 506.37
v -518.9264 0 505.8465
v -518.9264 5.79232 505.8465
v -519.2515 0 505.8465
v -519.2515 5.79232 505.8465
v -508.9506 13.01165 506.3732
v -508.971 12.71267 506.3666
v -508.9456 13.02203 505.8499
v -508.966 12.72305 505.8433
v -519.2515 6.034239 506.37
v -518.8376 6.034239 506.37
v -519.2515 6.034239 505.8465
v -518.8376 6.034239 505.8465
v -515.4916 11.0063 506.37
v -515.1665 10.76099 506.37
v -515.4916 11.0063 505.8465
v -515.1665 10.76099 505.8465
v -518.8376 6.034239 506.372
v -518.9264 5.79232 506.372
v -519.2515 0 518.37
v -518.9264 0 518.37
v -519.2515 5.79232 518.37
v -518.9264 5.79232 518.37
v -518.9264 0 517.8465
v -518.9264 5.79232 517.8465
v -519.2515 0 517.8465
v -519.2515 5.79232 517.8465
v -508.9506 13.01165 518.3732
v -508.971 12.71267 518.3666
v -508.9456 13.02203 517.8499
v -508.966 12.72305 517.8433
v -519.2515 6.034239 518.37
v -518.8376 6.034239 518.37
v -519.2515 6.034239 517.8465
v -518.8376 6.034239 517.8466
v -515.4916 11.0063 518.37
v -515.1665 10.76099 518.37
v -515.4916 11.0063 517.8466
v -515.1665 10.76099 517.8466
v -518.8376 6.034239 518.3719
v -518.9264 5.79232 518.3719
v -519.2515 0 530.63
v -518.9264 0 530.63
v -519.2515 5.79232 530.63
v -518.9264 5.79232 530.63
v -518.9264 0 530.1065
v -518.9264 5.79232 530.1065
v -519.2515 0 530.1065
v -519.2515 5.79232 530.1065
v -508.9506 13.01165 530.6332
v -508.971 12.71267 530.6266
v -508.9456 13.02203 530.1099
v -508.966 12.72305 530.1033
v -519.2515 6.034239 530.63
v -518.8376 6.034239 530.63
v -519.2515 6.034239 530.1065
v -518.8376 6.034239 530.1066
v -515.4916 11.0063 530.63
v -515.1665 10.76099 530.63
v -515.4916 11.0063 530.1066
v -515.1665 10.76099 530.1066
v -518.8376 6.034239 530.632
v -518.9264 5.79232 530.632

vt 0 0
vt -2.793152 0
vt 0 1.976308
vt -2.793152 1.976308
vt -0.6962128 0
vt -0.6962128 1.976308
vt 2.793152 0
vt 2.793152 1.976308
vt 0.6962128 0
vt 0.6962128 1.976308
vt 0 -0.6962128
vt 2.793152 -0.6962128
vt -2.793152 -0.6962128
vt -1.634287 1.192093E-07
vt -1.634287 2.019207
vt -2.79315 2.019207
vt -1.239777E-05 2.019137
vt -0.6962128 2.019137
vt 1.634296 -5.364418E-06
vt 2.793159 2.019202
vt 1.634296 2.019202
vt 0.696197 2.019207
vt -1.151549 -21.67811
vt -1.176725 -21.86127
vt -1.83306 -21.6153
vt -1.858236 -21.79845
vt -1.634287 -0.6962128
vt -1.634296 2.10354
vt -3.109411 2.10354
vt 0.696197 2.10354
vt 1.192093E-05 2.10354
vt -0.6961784 2.10354
vt 3.109411 2.10339
vt 1.634296 2.10339
vt -38.35393 1.239777E-05
vt -38.35393 -0.6961966
vt -35.58739 11.56189
vt -2.781528 2.058044
vt -38.3655 2.064758
vt -5.584562 -7.524353
vt 2.781527 2.057861
vt 35.58739 11.56177
vt 5.584566 -7.524536
vt 38.3655 2.064575
vt 3.109402 -0.6961784
vt 3.109402 1.239777E-05
vt 38.35393 -0.6961784
vt 38.35393 1.239777E-05
vt -15.03583 3.836804
vt -16.19473 3.75129
vt 1.890597 -0.6961975
vt 1.890597 1.144409E-05
vt 15.40376 -0.6961975
vt 15.40376 1.144409E-05
vt -3.347851 1.144409E-05
vt -3.347851 -0.6961803
vt -16.53651 1.335144E-05
vt -16.53651 -0.6961784
vt 3.109385 2.103609
vt 1.634277 2.103609
vt 16.19473 3.751358
vt 15.03583 3.836872
vt -35.2686 0.530365
vt -37.7793 0.3457108
vt -15.73004 8.140182
vt -18.75036 7.669189
vt 15.1445 -0.6961823
vt 15.1445 1.525879E-05
vt 38.48788 -0.6916656
vt 38.37213 0.004318237
vt -16.30183 1.525879E-05
vt -16.30183 -0.6961823
vt -38.46324 -0.004501343
vt -38.57683 -0.7004852
vt 37.79624 0.344429
vt 35.29506 0.5273972
vt 18.73986 7.678673
vt 15.73114 8.147781
vt -0.839138 25.71605
vt -0.8557243 25.56024
vt -1.525345 25.75985
vt -1.541935 25.60404
vt -38.71354 1.525879E-05
vt -38.71354 -0.6962051
vt -35.91869 11.65881
vt -2.781496 2.057983
vt -38.72514 2.064819
vt -5.612877 -7.621216
vt 2.782959 2.058228
vt 35.91869 11.65863
vt 5.614344 -7.620972
vt 38.72515 2.064636
vt 38.71354 -0.6962051
vt 38.71354 1.525879E-05
vt -35.18235 0.5369873
vt -37.68178 0.3550186
vt -15.73981 8.148575
vt -18.7413 7.649361
vt -16.30258 0
vt -16.30258 -0.696167
vt -38.30136 -0.004440308
vt -38.41416 -0.70047
vt 37.69873 0.3537369
vt 35.20876 0.5340271
vt 18.73089 7.658836
vt 15.74094 8.156189
vt -3.845292 -0.1659069
vt -3.467372 -0.8362217
vt -3.298006 0.1426506
vt -2.920086 -0.5276642
vt -3.297997 0.1426563
vt -36.61401 -1.192093E-05
vt -36.61401 -0.696197
vt -33.98447 11.09326
vt -36.62558 2.064758
vt -5.447588 -7.055725
vt 33.98447 11.09308
vt 5.447582 -7.055908
vt 36.62557 2.064575
vt 36.61401 -0.6961966
vt 36.61401 1.239777E-05
vt -38.30133 -0.004501343
vt 33.98312 11.09271
vt 36.62423 2.064209

vn 0 0 1
vn -1 0 0
vn 0 0 -1
vn 1 0 0
vn 0 1 0
vn 0 -1 0
vn -0.9963632 0.08446811 0.0112038
vn 0.7976211 0.6031589 0
vn -0.7897747 -0.613397 0
vn 0.0003516517 -0.0004660873 0.9999998
vn -0.003460956 -0.01099571 0.9998708
vn -0.007273564 -0.02152534 0.9997419
vn 0.294292 0.9557156 0
vn 0.2936866 0.9558333 0.008075519
vn 0.2930813 0.9559511 0.01615104
vn -0.2984485 -0.9544258 0
vn -0.2990381 -0.9541736 -0.008021486
vn -0.2996276 -0.9539213 -0.01604297
vn 0.0003656472 -0.0004846372 -0.9999998
vn 0.003253102 0.01056848 -0.9998736
vn 0.006140557 0.02162159 -0.9997474
vn -0.997624 -0.06840537 0.008184775
vn -0.003649031 -0.01151513 0.999858
vn -0.007649714 -0.02256417 0.9997162
vn -0.300459 -0.9537948 0
vn -0.3010511 -0.9535406 -0.008007294
vn -0.3016432 -0.9532864 -0.01601459
vn 0.006409406 0.02247951 -0.9997268
vn 0.00340214 0.0110481 -0.9998621
vn 0.006436727 0.02258337 -0.9997243
vn -0.9388624 -0.3442927 0
vn -0.997624 0.0684062 -0.008184757
vn 0.7976187 -0.603162 0
vn -0.7897747 0.613397 0
vn -0.003667982 0.01156742 -0.9998567
vn -0.007687618 0.02266875 -0.9997135
vn 0.2942932 -0.9557152 0
vn 0.2936879 -0.955833 -0.008075511
vn 0.2930825 -0.9559507 -0.01615102
vn -0.3004603 0.9537943 0
vn -0.3010524 0.9535401 0.008007281
vn -0.3016445 0.9532859 0.01601456
vn 0.003402156 -0.0110481 0.9998621
vn 0.006436758 -0.02258337 0.9997243
vn 0.003388495 -0.01099617 0.9998633
vn 0.006409436 -0.02247951 0.9997268
vn -0.9388241 0.3443971 0

usemtl rug
f 3/3/1 4/4/1 2/2/1 1/1/1
f 4/3/2 6/6/2 5/5/2 2/1/2
f 6/8/3 8/3/3 7/1/3 5/7/3
f 8/10/4 3/3/4 1/1/4 7/9/4
f 8/11/5 6/12/5 4/7/5 3/1/5
f 1/1/6 2/2/6 5/13/6 7/11/6

usemtl green
f 11/15/1 12/16/1 10/2/1 9/14/1
f 12/17/2 14/18/2 13/5/2 10/1/2
f 14/20/3 16/21/3 15/19/3 13/7/3
f 16/22/4 11/17/4 9/1/4 15/9/4
f 19/25/7 20/26/7 18/24/7 17/23/7
f 9/14/6 10/2/6 13/13/6 15/27/6
f 21/28/1 22/29/1 12/16/1 11/15/1
f 23/30/4 21/31/4 11/17/4 16/22/4
f 26/31/2 27/32/2 25/18/2 24/17/2
f 28/33/3 23/34/3 16/21/3 14/20/3
f 24/35/6 25/36/6 14/13/6 12/2/6
f 26/39/1 24/40/1 12/38/1 22/37/1
f 25/43/3 27/44/3 28/42/3 14/41/3
f 27/47/5 26/48/5 22/46/5 28/45/5
f 29/49/1 30/50/1 22/29/1 21/28/1
f 31/53/8 29/54/8 21/52/8 23/51/8
f 30/57/9 32/58/9 28/56/9 22/55/9
f 32/61/3 31/62/3 23/60/3 28/59/3
f 17/65/11 18/66/12 30/64/11 29/63/10
f 19/69/14 17/70/15 29/68/14 31/67/13
f 18/73/17 20/74/18 32/72/17 30/71/16
f 20/77/20 19/78/21 31/76/20 32/75/19
f 35/15/1 36/16/1 34/2/1 33/14/1
f 36/17/2 38/18/2 37/5/2 34/1/2
f 38/20/3 40/21/3 39/19/3 37/7/3
f 40/22/4 35/17/4 33/1/4 39/9/4
f 43/81/22 44/82/22 42/80/22 41/79/22
f 33/14/6 34/2/6 37/13/6 39/27/6
f 45/28/1 46/29/1 36/16/1 35/15/1
f 47/30/4 45/31/4 35/17/4 40/22/4
f 50/31/2 51/32/2 49/18/2 48/17/2
f 52/33/3 47/34/3 40/21/3 38/20/3
f 48/83/6 49/84/6 38/13/6 36/2/6
f 50/87/1 48/88/1 36/86/1 46/85/1
f 49/91/3 51/92/3 52/90/3 38/89/3
f 51/93/5 50/94/5 46/46/5 52/45/5
f 53/49/1 54/50/1 46/29/1 45/28/1
f 55/53/8 53/54/8 45/52/8 47/51/8
f 54/57/9 56/58/9 52/56/9 46/55/9
f 56/61/3 55/62/3 47/60/3 52/59/3
f 41/97/23 42/98/24 54/96/23 53/95/10
f 43/69/14 41/70/15 53/68/14 55/67/13
f 42/101/26 44/102/27 56/100/26 54/99/25
f 44/105/20 43/106/28 55/104/20 56/103/19
f 59/15/1 60/16/1 58/2/1 57/14/1
f 60/17/2 62/18/2 61/5/2 58/1/2
f 62/20/3 64/21/3 63/19/3 61/7/3
f 64/22/4 59/17/4 57/1/4 63/9/4
f 67/81/22 68/82/22 66/80/22 65/79/22
f 57/14/6 58/2/6 61/13/6 63/27/6
f 69/28/1 70/29/1 60/16/1 59/15/1
f 71/30/4 69/31/4 59/17/4 64/22/4
f 72/33/3 71/34/3 64/21/3 62/20/3
f 73/49/1 74/50/1 70/29/1 69/28/1
f 75/53/8 73/54/8 69/52/8 71/51/8
f 74/57/9 76/58/9 72/56/9 70/55/9
f 76/61/3 75/62/3 71/60/3 72/59/3
f 65/97/23 66/98/24 74/96/23 73/95/10
f 67/69/14 65/70/15 73/68/14 75/67/13
f 66/101/26 68/102/27 76/100/26 74/99/25
f 68/105/29 67/106/30 75/104/29 76/103/19
f 78/110/31 77/109/31 72/107/31 62/108/31
f 81/15/1 82/16/1 80/2/1 79/14/1
f 82/17/2 84/18/2 83/5/2 80/1/2
f 84/20/3 86/21/3 85/19/3 83/7/3
f 86/22/4 81/17/4 79/1/4 85/9/4
f 89/81/22 90/82/22 88/80/22 87/79/22
f 79/14/6 80/2/6 83/13/6 85/27/6
f 91/28/1 92/29/1 82/16/1 81/15/1
f 93/30/4 91/31/4 81/17/4 86/22/4
f 94/33/3 93/34/3 86/21/3 84/20/3
f 95/49/1 96/50/1 92/29/1 91/28/1
f 97/53/8 95/54/8 91/52/8 93/51/8
f 96/57/9 98/58/9 94/56/9 92/55/9
f 98/61/3 97/62/3 93/60/3 94/59/3
f 87/97/23 88/98/24 96/96/23 95/95/10
f 89/69/14 87/70/15 95/68/14 97/67/13
f 88/101/26 90/102/27 98/100/26 96/99/25
f 90/105/20 89/106/28 97/104/20 98/103/19
f 100/110/31 99/109/31 94/107/31 84/108/31
f 103/15/1 104/16/1 102/2/1 101/14/1
f 104/17/2 106/18/2 105/5/2 102/1/2
f 106/20/3 108/21/3 107/19/3 105/7/3
f 108/22/4 103/17/4 101/1/4 107/9/4
f 111/81/22 112/82/22 110/80/22 109/79/22
f 101/14/6 102/2/6 105/13/6 107/27/6
f 113/28/1 114/29/1 104/16/1 103/15/1
f 115/30/4 113/31/4 103/17/4 108/22/4
f 116/33/3 115/34/3 108/21/3 106/20/3
f 117/49/1 118/50/1 114/29/1 113/28/1
f 119/53/8 117/54/8 113/52/8 115/51/8
f 118/57/9 120/58/9 116/56/9 114/55/9
f 120/61/3 119/62/3 115/60/3 116/59/3
f 109/97/23 110/98/24 118/96/23 117/95/10
f 111/69/14 109/70/15 117/68/14 119/67/13
f 110/101/26 112/102/27 120/100/26 118/99/25
f 112/105/20 111/106/28 119/104/20 120/103/19
f 122/110/31 121/111/31 116/107/31 106/108/31
f 125/15/3 126/16/3 124/2/3 123/14/3
f 126/17/2 128/18/2 127/5/2 124/1/2
f 128/20/1 130/21/1 129/19/1 127/7/1
f 130/22/4 125/17/4 123/1/4 129/9/4
f 133/81/32 134/82/32 132/80/32 131/79/32
f 123/14/5 124/2/5 127/13/5 129/27/5
f 135/28/3 136/29/3 126/16/3 125/15/3
f 137/30/4 135/31/4 125/17/4 130/22/4
f 140/31/2 141/32/2 139/18/2 138/17/2
f 142/33/1 137/34/1 130/21/1 128/20/1
f 138/112/5 139/113/5 128/13/5 126/2/5
f 140/115/3 138/116/3 126/38/3 136/114/3
f 139/118/1 141/119/1 142/117/1 128/41/1
f 141/120/6 140/121/6 136/46/6 142/45/6
f 143/49/3 144/50/3 136/29/3 135/28/3
f 145/53/33 143/54/33 135/52/33 137/51/33
f 144/57/34 146/58/34 142/56/34 136/55/34
f 146/61/1 145/62/1 137/60/1 142/59/1
f 131/97/35 132/98/36 144/96/35 143/95/19
f 133/69/38 131/70/39 143/68/38 145/67/37
f 132/122/41 134/102/42 146/100/41 144/99/40
f 134/105/43 133/106/44 145/104/43 146/103/10
f 149/15/3 150/16/3 148/2/3 147/14/3
f 150/17/2 152/18/2 151/5/2 148/1/2
f 152/20/1 154/21/1 153/19/1 151/7/1
f 154/22/4 149/17/4 147/1/4 153/9/4
f 157/81/32 158/82/32 156/80/32 155/79/32
f 147/14/5 148/2/5 151/13/5 153/27/5
f 159/28/3 160/29/3 150/16/3 149/15/3
f 161/30/4 159/31/4 149/17/4 154/22/4
f 164/31/2 165/32/2 163/18/2 162/17/2
f 166/33/1 161/34/1 154/21/1 152/20/1
f 162/112/5 163/113/5 152/13/5 150/2/5
f 164/115/3 162/116/3 150/38/3 160/114/3
f 163/118/1 165/124/1 166/123/1 152/41/1
f 165/120/6 164/121/6 160/46/6 166/45/6
f 167/49/3 168/50/3 160/29/3 159/28/3
f 169/53/33 167/54/33 159/52/33 161/51/33
f 168/57/34 170/58/34 166/56/34 160/55/34
f 170/61/1 169/62/1 161/60/1 166/59/1
f 155/97/35 156/98/36 168/96/35 167/95/19
f 157/69/38 155/70/39 167/68/38 169/67/37
f 156/101/41 158/102/42 170/100/41 168/99/40
f 158/105/45 157/106/46 169/104/45 170/103/10
f 173/15/3 174/16/3 172/2/3 171/14/3
f 174/17/2 176/18/2 175/5/2 172/1/2
f 176/20/1 178/21/1 177/19/1 175/7/1
f 178/22/4 173/17/4 171/1/4 177/9/4
f 181/81/32 182/82/32 180/80/32 179/79/32
f 171/14/5 172/2/5 175/13/5 177/27/5
f 183/28/3 184/29/3 174/16/3 173/15/3
f 185/30/4 183/31/4 173/17/4 178/22/4
f 186/33/1 185/34/1 178/21/1 176/20/1
f 187/49/3 188/50/3 184/29/3 183/28/3
f 189/53/33 187/54/33 183/52/33 185/51/33
f 188/57/34 190/58/34 186/56/34 184/55/34
f 190/61/1 189/62/1 185/60/1 186/59/1
f 179/97/35 180/98/36 188/96/35 187/95/19
f 181/69/38 179/70/39 187/68/38 189/67/37
f 180/101/41 182/102/42 190/100/41 188/99/40
f 182/105/43 181/106/44 189/104/43 190/103/10
f 192/110/47 191/109/47 186/107/47 176/108/47
f 195/15/3 196/16/3 194/2/3 193/14/3
f 196/17/2 198/18/2 197/5/2 194/1/2
f 198/20/1 200/21/1 199/19/1 197/7/1
f 200/22/4 195/17/4 193/1/4 199/9/4
f 203/81/32 204/82/32 202/80/32 201/79/32
f 193/14/5 194/2/5 197/13/5 199/27/5
f 205/28/3 206/29/3 196/16/3 195/15/3
f 207/30/4 205/31/4 195/17/4 200/22/4
f 208/33/1 207/34/1 200/21/1 198/20/1
f 209/49/3 210/50/3 206/29/3 205/28/3
f 211/53/33 209/54/33 205/52/33 207/51/33
f 210/57/34 212/58/34 208/56/34 206/55/34
f 212/61/1 211/62/1 207/60/1 208/59/1
f 201/97/35 202/98/36 210/96/35 209/95/19
f 203/69/38 201/70/39 209/68/38 211/67/37
f 202/101/41 204/102/42 212/100/41 210/99/40
f 204/105/45 203/106/46 211/104/45 212/103/10
f 214/110/47 213/109/47 208/107/47 198/108/47
f 217/15/3 218/16/3 216/2/3 215/14/3
f 218/17/2 220/18/2 219/5/2 216/1/2
f 220/20/1 222/21/1 221/19/1 219/7/1
f 222/22/4 217/17/4 215/1/4 221/9/4
f 225/81/32 226/82/32 224/80/32 223/79/32
f 215/14/5 216/2/5 219/13/5 221/27/5
f 227/28/3 228/29/3 218/16/3 217/15/3
f 229/30/4 227/31/4 217/17/4 222/22/4
f 230/33/1 229/34/1 222/21/1 220/20/1
f 231/49/3 232/50/3 228/29/3 227/28/3
f 233/53/33 231/54/33 227/52/33 229/51/33
f 232/57/34 234/58/34 230/56/34 228/55/34
f 234/61/1 233/62/1 229/60/1 230/59/1
f 223/97/35 224/98/36 232/96/35 231/95/19
f 225/69/38 223/70/39 231/68/38 233/67/37
f 224/101/41 226/102/42 234/100/41 232/99/40
f 226/105/45 225/106/46 233/104/45 234/103/10
f 236/110/47 235/109/47 230/107/47 220/108/47

